<svg xmlns="http://www.w3.org/2000/svg" viewBox="0 0 900 520" width="900" height="520" role="img" aria-label="Law &amp; Order: UK artwork">
  <defs>
    <linearGradient id="bg" x1="0" y1="0" x2="1" y2="1"><stop offset="0" stop-color="#0f172a"/><stop offset="0.55" stop-color="#111827"/><stop offset="1" stop-color="#dc2626" stop-opacity="0.72"/></linearGradient>
    <radialGradient id="glow" cx="72%" cy="24%" r="65%"><stop offset="0" stop-color="#fee2e2" stop-opacity="0.35"/><stop offset="1" stop-color="#dc2626" stop-opacity="0"/></radialGradient>
    <filter id="shadow" x="-20%" y="-20%" width="140%" height="140%"><feDropShadow dx="0" dy="18" stdDeviation="18" flood-color="#000" flood-opacity="0.45"/></filter>
  </defs>
  <rect width="900" height="520" fill="url(#bg)"/>
  <rect width="900" height="520" fill="url(#glow)"/>
  <g opacity="0.18" stroke="#fee2e2" stroke-width="1">
    <path d="M0 95H900M0 180H900M0 265H900M0 350H900M0 435H900"/>
    <path d="M95 0V520M190 0V520M285 0V520M380 0V520M475 0V520M570 0V520M665 0V520M760 0V520M855 0V520"/>
  </g>
  <g opacity="0.26" fill="#000">
    <rect x="0" y="380" width="80" height="140"/><rect x="92" y="330" width="62" height="190"/><rect x="174" y="365" width="110" height="155"/><rect x="310" y="295" width="86" height="225"/><rect x="420" y="342" width="70" height="178"/><rect x="520" y="300" width="126" height="220"/><rect x="690" y="360" width="88" height="160"/><rect x="800" y="320" width="100" height="200"/>
  </g>
  <g filter="url(#shadow)">
    <rect x="62" y="72" width="178" height="178" rx="42" fill="#dc2626" opacity="0.92"/>
    <text x="151" y="168" text-anchor="middle" font-family="Inter, Arial, sans-serif" font-size="54" font-weight="900" fill="white">UK</text>
  </g>
  <text x="62" y="330" font-family="Inter, Arial, sans-serif" font-size="44" font-weight="900" fill="white">Law &amp; Order: UK</text>
  <text x="62" y="372" font-family="Inter, Arial, sans-serif" font-size="22" font-weight="700" fill="#fee2e2" opacity="0.95">Chronological Watch Tracker</text>
  <rect x="62" y="406" width="280" height="8" rx="4" fill="#dc2626"/>
  <text x="62" y="455" font-family="Inter, Arial, sans-serif" font-size="18" font-weight="700" fill="white" opacity="0.78">Trakt sync • Seasons • Episodes</text>
</svg>